<?xml version="1.0" encoding="UTF-8" standalone="no"?>
<!DOCTYPE svg PUBLIC "-//W3C//DTD SVG 1.1//EN"
 "http://www.w3.org/Graphics/SVG/1.1/DTD/svg11.dtd">
<!-- Generated by graphviz version 12.1.2 (20240928.0832)
 -->
<!-- Pages: 1 -->
<svg width="291pt" height="195pt"
 viewBox="0.00 0.00 290.50 194.67" xmlns="http://www.w3.org/2000/svg" xmlns:xlink="http://www.w3.org/1999/xlink">
<g id="graph0" class="graph" transform="scale(1 1) rotate(0) translate(4 190.67)">
<polygon fill="white" stroke="none" points="-4,4 -4,-190.67 286.5,-190.67 286.5,4 -4,4"/>
<!-- Flap -->
<g id="node1" class="node">
<title>Flap</title>
<polygon fill="lightgray" stroke="black" points="44.62,-186.67 12.87,-186.67 12.87,-168.17 44.62,-168.17 44.62,-186.67"/>
<text text-anchor="middle" x="28.75" y="-174.12" font-family="Times,serif" font-size="9.00">Flap</text>
</g>
<!-- &#45;2 -->
<g id="node2" class="node">
<title>&#45;2</title>
<polygon fill="lightgray" stroke="black" points="23.5,-123.74 0,-123.74 0,-105.24 23.5,-105.24 23.5,-123.74"/>
<text text-anchor="middle" x="11.75" y="-111.19" font-family="Times,serif" font-size="9.00">&#45;2</text>
</g>
<!-- Bird_Y -->
<g id="node9" class="node">
<title>Bird_Y</title>
<ellipse fill="lightblue" stroke="black" cx="144.75" cy="-30.41" rx="30.41" ry="30.41"/>
<text text-anchor="middle" x="144.75" y="-27.11" font-family="Times,serif" font-size="9.00">Bird_Y</text>
</g>
<!-- &#45;2&#45;&gt;Bird_Y -->
<g id="edge6" class="edge">
<title>&#45;2&#45;&gt;Bird_Y</title>
<path fill="none" stroke="green" stroke-width="0.52" d="M23.88,-105.63C28.24,-102.82 33.2,-99.66 37.75,-96.81 61.75,-81.78 88.99,-65.14 109.97,-52.4"/>
<polygon fill="green" stroke="green" stroke-width="0.52" points="111.73,-55.43 118.46,-47.26 108.1,-49.45 111.73,-55.43"/>
</g>
<!-- &#45;3 -->
<g id="node3" class="node">
<title>&#45;3</title>
<polygon fill="lightgray" stroke="black" points="86.5,-186.67 63,-186.67 63,-168.17 86.5,-168.17 86.5,-186.67"/>
<text text-anchor="middle" x="74.75" y="-174.12" font-family="Times,serif" font-size="9.00">&#45;3</text>
</g>
<!-- &#45;3&#45;&gt;Bird_Y -->
<g id="edge1" class="edge">
<title>&#45;3&#45;&gt;Bird_Y</title>
<path fill="none" stroke="red" stroke-width="0.53" stroke-dasharray="1,5" d="M71.94,-168.05C67.38,-153.02 59.95,-120.78 70.75,-96.81 78.94,-78.65 94.94,-63.5 109.97,-52.37"/>
<polygon fill="red" stroke="red" stroke-width="0.53" points="111.82,-55.35 117.99,-46.74 107.8,-49.62 111.82,-55.35"/>
</g>
<!-- 35 -->
<g id="node10" class="node">
<title>35</title>
<ellipse fill="white" stroke="black" cx="97.75" cy="-114.49" rx="17.68" ry="17.68"/>
<text text-anchor="middle" x="97.75" y="-111.19" font-family="Times,serif" font-size="9.00">35</text>
</g>
<!-- &#45;3&#45;&gt;35 -->
<g id="edge7" class="edge">
<title>&#45;3&#45;&gt;35</title>
<path fill="none" stroke="red" stroke-width="0.27" d="M78.05,-167.69C80.7,-160.65 84.57,-150.4 88.18,-140.83"/>
<polygon fill="red" stroke="red" stroke-width="0.27" points="91.39,-142.25 91.64,-131.66 84.84,-139.78 91.39,-142.25"/>
</g>
<!-- &#45;4 -->
<g id="node4" class="node">
<title>&#45;4</title>
<polygon fill="lightgray" stroke="black" points="156.5,-123.74 133,-123.74 133,-105.24 156.5,-105.24 156.5,-123.74"/>
<text text-anchor="middle" x="144.75" y="-111.19" font-family="Times,serif" font-size="9.00">&#45;4</text>
</g>
<!-- &#45;4&#45;&gt;Bird_Y -->
<g id="edge2" class="edge">
<title>&#45;4&#45;&gt;Bird_Y</title>
<path fill="none" stroke="green" stroke-width="0.39" d="M144.75,-105.01C144.75,-96.95 144.75,-84.2 144.75,-71.57"/>
<polygon fill="green" stroke="green" stroke-width="0.39" points="148.25,-71.68 144.75,-61.68 141.25,-71.68 148.25,-71.68"/>
</g>
<!-- &#45;5 -->
<g id="node5" class="node">
<title>&#45;5</title>
<polygon fill="lightgray" stroke="black" points="128.5,-186.67 105,-186.67 105,-168.17 128.5,-168.17 128.5,-186.67"/>
<text text-anchor="middle" x="116.75" y="-174.12" font-family="Times,serif" font-size="9.00">&#45;5</text>
</g>
<!-- &#45;6 -->
<g id="node6" class="node">
<title>&#45;6</title>
<polygon fill="lightgray" stroke="black" points="198.5,-123.74 175,-123.74 175,-105.24 198.5,-105.24 198.5,-123.74"/>
<text text-anchor="middle" x="186.75" y="-111.19" font-family="Times,serif" font-size="9.00">&#45;6</text>
</g>
<!-- &#45;6&#45;&gt;Bird_Y -->
<g id="edge3" class="edge">
<title>&#45;6&#45;&gt;Bird_Y</title>
<path fill="none" stroke="red" stroke-width="0.26" d="M182.41,-105.01C177.77,-95.94 170.1,-80.94 162.88,-66.85"/>
<polygon fill="red" stroke="red" stroke-width="0.26" points="166.1,-65.44 158.43,-58.13 159.87,-68.63 166.1,-65.44"/>
</g>
<!-- &#45;7 -->
<g id="node7" class="node">
<title>&#45;7</title>
<polygon fill="lightgray" stroke="black" points="240.5,-123.74 217,-123.74 217,-105.24 240.5,-105.24 240.5,-123.74"/>
<text text-anchor="middle" x="228.75" y="-111.19" font-family="Times,serif" font-size="9.00">&#45;7</text>
</g>
<!-- &#45;7&#45;&gt;Bird_Y -->
<g id="edge4" class="edge">
<title>&#45;7&#45;&gt;Bird_Y</title>
<path fill="none" stroke="green" stroke-width="0.14" d="M220.08,-105.01C209.17,-94.36 189.9,-75.53 173.58,-59.58"/>
<polygon fill="green" stroke="green" stroke-width="0.14" points="176.08,-57.12 166.48,-52.64 171.18,-62.13 176.08,-57.12"/>
</g>
<!-- &#45;8 -->
<g id="node8" class="node">
<title>&#45;8</title>
<polygon fill="lightgray" stroke="black" points="282.5,-123.74 259,-123.74 259,-105.24 282.5,-105.24 282.5,-123.74"/>
<text text-anchor="middle" x="270.75" y="-111.19" font-family="Times,serif" font-size="9.00">&#45;8</text>
</g>
<!-- &#45;8&#45;&gt;Bird_Y -->
<g id="edge5" class="edge">
<title>&#45;8&#45;&gt;Bird_Y</title>
<path fill="none" stroke="red" stroke-width="0.15" d="M260.25,-104.76C256.95,-102.13 253.25,-99.28 249.75,-96.81 226.87,-80.68 200.06,-64.01 179.26,-51.54"/>
<polygon fill="red" stroke="red" stroke-width="0.15" points="181.31,-48.69 170.93,-46.58 177.73,-54.71 181.31,-48.69"/>
</g>
<!-- 35&#45;&gt;Bird_Y -->
<g id="edge8" class="edge">
<title>35&#45;&gt;Bird_Y</title>
<path fill="none" stroke="red" stroke-width="0.34" d="M106.15,-98.81C111.36,-89.72 118.29,-77.62 124.83,-66.19"/>
<polygon fill="red" stroke="red" stroke-width="0.34" points="127.77,-68.11 129.7,-57.69 121.69,-64.63 127.77,-68.11"/>
</g>
</g>
</svg>
